<?xml version="1.0" encoding="utf-8"?>
<!-- Generator: Adobe Illustrator 23.0.0, SVG Export Plug-In . SVG Version: 6.00 Build 0)  -->
<svg version="1.1" id="Camada_1" xmlns="http://www.w3.org/2000/svg" xmlns:xlink="http://www.w3.org/1999/xlink" x="0px" y="0px"
	 viewBox="0 0 80 80" style="enable-background:new 0 0 80 80;" xml:space="preserve">
<style type="text/css">
	.st0{fill:#FFFFFF;}
</style>
<g>
	<circle class="st0" cx="24.3" cy="10.4" r="10.4"/>
	<circle class="st0" cx="55" cy="10.4" r="10.4"/>
	<circle class="st0" cx="24.3" cy="39.7" r="10.4"/>
	<path class="st0" d="M55,50.7c-6.1,0-11-4.9-11-11s4.9-11,11-11s11,4.9,11,11S61.1,50.7,55,50.7z M55,30c-5.4,0-9.7,4.3-9.7,9.7
		s4.3,9.7,9.7,9.7s9.7-4.3,9.7-9.7S60.3,30,55,30z"/>
	<circle class="st0" cx="24.3" cy="69" r="10.4"/>
	<path class="st0" d="M55,80c-6.1,0-11-4.9-11-11c0-6.1,4.9-11,11-11s11,4.9,11,11C66,75.1,61.1,80,55,80z M55,59.3
		c-5.4,0-9.7,4.3-9.7,9.7s4.3,9.7,9.7,9.7s9.7-4.3,9.7-9.7S60.3,59.3,55,59.3z"/>
</g>
</svg>
