<svg xmlns="http://www.w3.org/2000/svg" viewBox="0 0 19.999 19.999"><defs><style>.a{fill:#00ab0b;}.b,.c{stroke:none;}.c{fill:#fff;}</style></defs><g class="a" transform="translate(2 1.902)"><path class="b" d="M 9.834222793579102 17.09700393676758 C 9.293392181396484 17.09700393676758 8.75604248046875 16.91920280456543 8.321172714233398 16.59635353088379 C 8.226932525634766 16.52631378173828 8.115872383117676 16.48946380615234 7.99956226348877 16.48946380615234 C 7.883032321929932 16.48946380615234 7.771632194519043 16.52643394470215 7.677412509918213 16.59638404846191 C 7.241622447967529 16.91916275024414 6.704292297363281 17.09657287597656 6.163562297821045 17.09657287597656 C 5.919732570648193 17.09657287597656 5.677532196044922 17.06148338317871 5.443672180175781 16.99227333068848 C 4.684462547302246 16.76824378967285 4.062642574310303 16.19062423706055 3.781052350997925 15.44737339019775 C 3.698472261428833 15.23033332824707 3.497072458267212 15.08926391601563 3.268432378768921 15.08926391601563 C 3.257022380828857 15.08926391601563 3.24551248550415 15.08962345123291 3.234002351760864 15.0903434753418 C 3.18197226524353 15.09369373321533 3.127422332763672 15.09544372558594 3.073572397232056 15.09544372558594 C 2.333252429962158 15.09544372558594 1.630492329597473 14.77195358276367 1.145472407341003 14.20793342590332 C 0.6309023499488831 13.60939311981201 0.4188423752784729 12.78896331787109 0.5781523585319519 12.01321315765381 C 0.628312349319458 11.77128314971924 0.5158923864364624 11.52090358734131 0.3051423728466034 11.40245342254639 C -0.3843876421451569 11.0153636932373 -0.863067626953125 10.31490325927734 -0.9748876094818115 9.528953552246094 C -1.086567640304565 8.744133949279785 -0.8234476447105408 7.937823295593262 -0.2710376381874084 7.372093677520752 C -0.09887763112783432 7.195113658905029 -0.0609276294708252 6.926823616027832 -0.1779476255178452 6.705893516540527 C -0.5481376051902771 6.008523464202881 -0.574747622013092 5.161323547363281 -0.2486976236104965 4.440483570098877 C 0.07903236895799637 3.715943574905396 0.7355723977088928 3.178373575210571 1.507562398910522 3.002493381500244 C 1.743242383003235 2.948773384094238 1.914972424507141 2.746383428573608 1.93482232093811 2.498863458633423 C 1.997702360153198 1.708733439445496 2.431482315063477 0.9799134731292725 3.095152378082275 0.5499134659767151 C 3.507802486419678 0.2825334668159485 3.985422372817993 0.1412034779787064 4.476352214813232 0.1412034779787064 C 4.775092601776123 0.1412034779787064 5.068942546844482 0.1934034675359726 5.349722385406494 0.2963534593582153 C 5.408862590789795 0.3179934620857239 5.470902442932129 0.3290634751319885 5.533562183380127 0.3290634751319885 C 5.704382419586182 0.3290534615516663 5.861742496490479 0.2500134706497192 5.965312480926514 0.1122034713625908 C 6.447322368621826 -0.5240164995193481 7.206072330474854 -0.9019965529441833 7.997312545776367 -0.9019965529441833 C 8.788962364196777 -0.9019965529441833 9.547962188720703 -0.5240164995193481 10.02763271331787 0.1091034710407257 C 10.13322257995605 0.2487534731626511 10.29187202453613 0.3284034729003906 10.46349239349365 0.3284034729003906 C 10.52629280090332 0.3284034729003906 10.58841228485107 0.3173234760761261 10.64813232421875 0.2954734861850739 C 10.92821216583252 0.1925134658813477 11.2226619720459 0.1400634795427322 11.52193260192871 0.1400634795427322 C 12.01345252990723 0.1400634795427322 12.49126243591309 0.2819134593009949 12.90372276306152 0.5502734780311584 C 13.5648021697998 0.9778934717178345 13.99903202056885 1.706353425979614 14.06306266784668 2.497463464736938 C 14.08274269104004 2.745793581008911 14.25481224060059 2.947883367538452 14.49137210845947 3.002033472061157 C 15.26238250732422 3.177703380584717 15.91892242431641 3.715273380279541 16.24664306640625 4.439813613891602 C 16.57781219482422 5.170623302459717 16.55232238769531 5.996893405914307 16.17643165588379 6.706143379211426 C 16.05976295471191 6.926653385162354 16.09770202636719 7.194893360137939 16.27117156982422 7.372983455657959 C 16.82341194152832 7.939643383026123 17.08597183227539 8.746183395385742 16.97332191467285 9.530303001403809 C 16.86064147949219 10.31448364257813 16.38290214538574 11.01409339904785 15.69535255432129 11.40177345275879 C 15.47971248626709 11.52283382415771 15.36982250213623 11.76781368255615 15.42027282714844 12.01229381561279 C 15.58054256439209 12.78744316101074 15.36860275268555 13.60835361480713 14.85323238372803 14.2078332901001 C 14.36939144134521 14.77166938781738 13.66647529602051 15.09544372558594 12.9253454208374 15.09544372558594 C 12.92530059814453 15.09544372558594 12.9252872467041 15.09544372558594 12.92524242401123 15.09544372558594 C 12.87138271331787 15.09543323516846 12.81682205200195 15.09369373321533 12.76308250427246 15.09024333953857 C 12.75198268890381 15.08954334259033 12.74048233032227 15.08917331695557 12.72901248931885 15.08917331695557 C 12.50478267669678 15.08917331695557 12.29945278167725 15.2332935333252 12.21808242797852 15.44778347015381 C 11.9347620010376 16.19160270690918 11.31292247772217 16.76860427856445 10.5541820526123 16.99249267578125 C 10.32169246673584 17.06164360046387 10.078782081604 17.09700393676758 9.834222793579102 17.09700393676758 Z"/><path class="c" d="M 9.834220886230469 16.09700202941895 C 9.980564117431641 16.09700202941895 10.12765407562256 16.0760612487793 10.27116203308105 16.03338432312012 C 10.73580265045166 15.89627361297607 11.10978221893311 15.54811382293701 11.28310203552246 15.09308338165283 C 11.51334095001221 14.48618412017822 12.09069538116455 14.08917808532715 12.7290096282959 14.08917808532715 C 12.76156234741211 14.08917808532715 12.79417991638184 14.09020614624023 12.82701206207275 14.09229373931885 C 12.85982799530029 14.09439563751221 12.89264965057373 14.09543895721436 12.92529296875 14.09543991088867 C 13.37273979187012 14.09546089172363 13.79981231689453 13.8998441696167 14.09493255615234 13.55593299865723 C 14.41157245635986 13.18761348724365 14.53957271575928 12.69158363342285 14.44090270996094 12.21437358856201 C 14.30291271209717 11.54561328887939 14.61156272888184 10.8634033203125 15.20419216156006 10.5307035446167 C 15.6261625289917 10.29277324676514 15.91414260864258 9.870683670043945 15.98348236083984 9.388093948364258 C 16.05281257629395 8.905513763427734 15.89348220825195 8.41822338104248 15.55483245849609 8.070733070373535 C 15.07953262329102 7.582773685455322 14.97353267669678 6.841413497924805 15.2928524017334 6.237853527069092 C 15.52083206176758 5.807693481445313 15.53683280944824 5.29620361328125 15.33551216125488 4.851933479309082 C 15.13486194610596 4.408333301544189 14.74022197723389 4.084363460540771 14.26824283599854 3.976823568344116 C 13.60762214660645 3.825603485107422 13.12032222747803 3.259673357009888 13.06632232666016 2.578133583068848 C 13.02699279785156 2.092193365097046 12.76568222045898 1.651953458786011 12.35836219787598 1.388473510742188 C 12.10599422454834 1.224272727966309 11.81519985198975 1.140061140060425 11.52193450927734 1.140061140060425 C 11.3434419631958 1.140061140060425 11.16405868530273 1.171241641044617 10.99179267883301 1.23456346988678 C 10.81877517700195 1.297879099845886 10.64014148712158 1.328401565551758 10.46350002288818 1.328403472900391 C 9.98948860168457 1.328408360481262 9.529720306396484 1.108635783195496 9.230562210083008 0.7129935026168823 C 8.937252044677734 0.3258534669876099 8.481282234191895 0.09800347685813904 7.997312545776367 0.09800347685813904 C 7.514002323150635 0.09800347685813904 7.058032512664795 0.3258534669876099 6.764722347259521 0.7129935026168823 C 6.467014312744141 1.109123826026917 6.007531642913818 1.329034209251404 5.53363037109375 1.32906436920166 C 5.357028961181641 1.329075574874878 5.17850923538208 1.298551797866821 5.005492210388184 1.235233426094055 C 4.833670616149902 1.172236323356628 4.654583930969238 1.141204357147217 4.476350784301758 1.141204357147217 C 4.182979583740234 1.141204357147217 3.891870975494385 1.225250363349915 3.638912439346313 1.389153480529785 C 3.232272386550903 1.652623414993286 2.970292329788208 2.0928635597229 2.931622266769409 2.578813552856445 C 2.876962423324585 3.260343551635742 2.39032244682312 3.826943397521973 1.729702353477478 3.977503538131714 C 1.257732391357422 4.085033416748047 0.8630823493003845 4.409003257751465 0.6624323725700378 4.852603435516357 C 0.4617823660373688 5.29620361328125 0.4777723848819733 5.808363437652588 0.7057623863220215 6.237853527069092 C 1.025072336196899 6.840743541717529 0.9190823435783386 7.582773685455322 0.4444423615932465 8.070733070373535 C 0.1051323711872101 8.41822338104248 -0.05352762714028358 8.905513763427734 0.01514237187802792 9.388093948364258 C 0.08380237221717834 9.870683670043945 0.3724523782730103 10.29344367980957 0.7950923442840576 10.5307035446167 C 1.387052416801453 10.8634033203125 1.696372389793396 11.54561328887939 1.557712316513062 12.21437358856201 C 1.459712386131287 12.69158363342285 1.587042331695557 13.18761348724365 1.903692364692688 13.55593299865723 C 2.199408054351807 13.89982128143311 2.627147197723389 14.09543991088867 3.073574542999268 14.09543991088867 C 3.106174230575562 14.09543991088867 3.138857126235962 14.09439754486084 3.17161226272583 14.09229373931885 C 3.203980445861816 14.09027004241943 3.236336708068848 14.08926677703857 3.268428325653076 14.08926677703857 C 3.907840490341187 14.08926677703857 4.485119342803955 14.48571681976318 4.716182231903076 15.09308338165283 C 4.888832569122314 15.54878330230713 5.26281213760376 15.89627361297607 5.727452278137207 16.03338432312012 C 5.870650291442871 16.07576179504395 6.017533779144287 16.09657287597656 6.163563251495361 16.09657287597656 C 6.48999547958374 16.09657287597656 6.812381267547607 15.99265956878662 7.081362247467041 15.79343318939209 C 7.354347229003906 15.59078884124756 7.676994800567627 15.48946571350098 7.999558448791504 15.48946571350098 C 8.322122573852539 15.48946571350098 8.64460277557373 15.59078884124756 8.917252540588379 15.79343318939209 C 9.185972213745117 15.99292850494385 9.508113861083984 16.09700202941895 9.834220886230469 16.09700202941895 M 5.40413236618042 7.539083480834961 L 7.166022300720215 9.223423004150391 L 10.9277925491333 5.335863590240479 L 12.16571235656738 6.583993434906006 L 7.166022300720215 11.72036361694336 L 4.166212558746338 8.787213325500488 L 5.40413236618042 7.539083480834961 M 9.834222793579102 18.09700393676758 C 9.190168380737305 18.09700393676758 8.549814224243164 17.91626358032227 7.999044895172119 17.58315467834473 C 7.44735860824585 17.91623878479004 6.807234764099121 18.09657287597656 6.163562297821045 18.09657287597656 C 5.823602199554443 18.09657287597656 5.485922336578369 18.04765319824219 5.159882545471191 17.95116424560547 C 4.205093383789063 17.66941261291504 3.406287431716919 16.98602104187012 2.972139835357666 16.09399223327637 C 1.977657198905945 16.06550979614258 1.040290832519531 15.61934089660645 0.387262374162674 14.85994338989258 C -0.2621828317642212 14.10452175140381 -0.5649308562278748 13.09535789489746 -0.4493179321289063 12.10971736907959 C -1.265362620353699 11.5502872467041 -1.824229121208191 10.6586332321167 -1.964917659759521 9.669803619384766 C -2.105524301528931 8.681713104248047 -1.818069815635681 7.668798923492432 -1.191118001937866 6.902331352233887 C -1.578231334686279 5.991298198699951 -1.571016550064087 4.93742847442627 -1.159827589988708 4.028353691101074 C -0.7483565807342529 3.118687629699707 0.03642488643527031 2.420706272125244 0.9759532809257507 2.11319375038147 C 1.141097068786621 1.135502457618713 1.714919686317444 0.2526386380195618 2.551392316818237 -0.2893265187740326 C 3.126372337341309 -0.6618764996528625 3.792022466659546 -0.8587965369224548 4.476352214813232 -0.8587965369224548 C 4.781660556793213 -0.8587965369224548 5.083296298980713 -0.8196993470191956 5.376714706420898 -0.7423206567764282 C 6.044746875762939 -1.473556995391846 7.002416133880615 -1.901996493339539 7.997312545776367 -1.901996493339539 C 8.992444038391113 -1.901996493339539 9.950218200683594 -1.473684787750244 10.61828136444092 -0.7426292300224304 C 10.91208648681641 -0.8204354643821716 11.21516036987305 -0.859936535358429 11.52193260192871 -0.859936535358429 C 12.20577526092529 -0.859936535358429 12.87049102783203 -0.6631649732589722 13.4446325302124 -0.2908164858818054 L 13.4446325302124 -0.2908165156841278 C 14.28115653991699 0.2502979636192322 14.85563564300537 1.133090019226074 15.02170944213867 2.112277507781982 C 15.96063041687012 2.419152736663818 16.74603271484375 3.117411375045776 17.15777206420898 4.027683258056641 C 17.56901550292969 4.935222148895264 17.57688522338867 5.9889817237854 17.18978691101074 6.901700019836426 C 17.8177433013916 7.669345378875732 18.10519981384277 8.683816909790039 17.9631519317627 9.672503471374512 C 17.82136154174805 10.65935230255127 17.2628173828125 11.55006313323975 16.44812965393066 12.10965538024902 C 16.56416702270508 13.09438896179199 16.2614860534668 14.10370445251465 15.61153221130371 14.85974311828613 C 14.96013641357422 15.61883068084717 14.02238273620605 16.06552886962891 13.02670478820801 16.09399604797363 C 12.5908899307251 16.9870777130127 11.79205322265625 17.66984748840332 10.83721256256104 17.95161437988281 C 10.51419258117676 18.04768371582031 10.17537212371826 18.09700393676758 9.834222793579102 18.09700393676758 Z"/></g></svg>