<?xml version="1.0" encoding="UTF-8"?>
<svg width="276px" height="66px" viewBox="0 0 276 66" version="1.1" xmlns="http://www.w3.org/2000/svg" xmlns:xlink="http://www.w3.org/1999/xlink">
    <!-- Generator: Sketch 46 (44423) - http://www.bohemiancoding.com/sketch -->
    <title>Logo</title>
    <desc>Created with Sketch.</desc>
    <defs>
        <linearGradient x1="103.452406%" y1="55.7041971%" x2="10.3233992%" y2="0%" id="linearGradient-1">
            <stop stop-color="#FF3366" offset="0%"/>
            <stop stop-color="#938EFB" offset="100%"/>
        </linearGradient>
        <radialGradient cx="32.6047981%" cy="28.035594%" fx="32.6047981%" fy="28.035594%" r="77.8283149%" gradientTransform="translate(0.326048,0.280356),scale(1.000000,0.992475),rotate(47.971487),scale(1.000000,1.012013),translate(-0.326048,-0.280356)" id="radialGradient-2">
            <stop stop-color="#938EFB" offset="0%"/>
            <stop stop-color="#FF3366" offset="100%"/>
        </radialGradient>
        <radialGradient cx="28.8480446%" cy="26.4918496%" fx="28.8480446%" fy="26.4918496%" r="160.761899%" gradientTransform="translate(0.288480,0.264918),scale(1.000000,0.992475),rotate(45.246120),scale(1.000000,1.012013),translate(-0.288480,-0.264918)" id="radialGradient-3">
            <stop stop-color="#938EFB" offset="0%"/>
            <stop stop-color="#FF3366" stop-opacity="0" offset="100%"/>
        </radialGradient>
        <ellipse id="path-4" cx="32.7516854" cy="33" rx="32.7516854" ry="33"/>
    </defs>
    <g id="Web-design" stroke="none" stroke-width="1" fill="none" fill-rule="evenodd">
        <g id="SC-Copy-46" transform="translate(-89.000000, -63.000000)">
            <g id="1.-Agency" transform="translate(-2.000000, 0.000000)">
                <g id="Logo" transform="translate(91.000000, 63.000000)">
                    <path d="M174.3838,12.3051299 L169.806732,12.3051299 L169.806732,5.61194805 L187.147495,5.61194805 L187.147495,12.3051299 L182.570427,12.3051299 L182.570427,31.1225325 L174.3838,31.1225325 L174.3838,12.3051299 Z M79,48.6136364 C79,46.5737993 79.3473079,44.7315991 80.0419343,43.0869805 C80.7365606,41.4423619 81.6792536,40.0336206 82.8700416,38.8607143 C84.0608295,37.687808 85.4500613,36.7890183 87.0377786,36.1643182 C88.6254959,35.5396181 90.3124202,35.2272727 92.0986022,35.2272727 C93.5126629,35.2272727 94.7716542,35.3675094 95.8756139,35.647987 C96.9795736,35.9284646 97.9284685,36.2471844 98.7223272,36.6041558 C99.6402262,37.0121233 100.434073,37.4583309 101.103891,37.9427922 L97.1966377,45.0184416 C96.7997084,44.712466 96.3655734,44.4192438 95.8942199,44.1387662 C95.4724825,43.9347825 94.9701263,43.7371763 94.3871364,43.5459416 C93.8041464,43.3547068 93.1405402,43.2590909 92.3962977,43.2590909 C91.6272471,43.2590909 90.9202274,43.3993276 90.2752172,43.6798052 C89.6302071,43.9602828 89.0658317,44.3427465 88.582074,44.8272078 C88.0983164,45.3116691 87.7199988,45.8789903 87.4471099,46.5291883 C87.174221,47.1793864 87.0377786,47.8741954 87.0377786,48.6136364 C87.0377786,49.3530773 87.180423,50.0478864 87.4657159,50.6980844 C87.7510089,51.3482825 88.1417303,51.9156036 88.637892,52.4000649 C89.1340536,52.8845262 89.7170348,53.2669899 90.386853,53.5474675 C91.0566713,53.8279451 91.7884987,53.9681818 92.5823574,53.9681818 C93.376216,53.9681818 94.0832358,53.8661915 94.7034379,53.6622078 C95.3236399,53.4582241 95.8446018,53.2287459 96.2663393,52.9737662 C96.7625009,52.6932886 97.1966358,52.3618201 97.5687571,51.9793506 L101.476011,59.055 C100.806192,59.6159552 100.012346,60.113158 99.0944465,60.5466234 C98.3005879,60.9035949 97.345491,61.2350634 96.2291273,61.541039 C95.1127636,61.8470145 93.8351665,62 92.3962977,62 C90.4612672,62 88.6751121,61.6749058 87.0377786,61.0247078 C85.4004452,60.3745097 83.9864057,59.4629712 82.7956177,58.2900649 C81.6048297,57.1171586 80.6745406,55.7084173 80.0047223,54.0637987 C79.3349041,52.4191801 79,50.6024775 79,48.6136364 Z M102.406309,35.8392208 L110.332452,35.8392208 L110.332452,44.5212338 L114.760672,44.5212338 L114.760672,35.8392208 L122.724027,35.8392208 L122.724027,61.3498052 L114.760672,61.3498052 L114.760672,51.9028571 L110.332452,51.9028571 L110.332452,61.3498052 L102.406309,61.3498052 L102.406309,35.8392208 Z M132.696827,35.8392208 L138.650737,35.8392208 L148.065357,61.3498052 L140.25085,61.3498052 L139.432187,59.055 L131.915376,59.055 L131.096713,61.3498052 L123.282206,61.3498052 L132.696827,35.8392208 Z M137.348319,53.4327273 L135.673782,48.9578571 L133.999244,53.4327273 L137.348319,53.4327273 Z M148.623536,35.8392208 L155.172837,35.8392208 L161.647714,45.6303896 L168.08538,35.8392208 L174.634681,35.8392208 L174.634681,61.3498052 L166.708538,61.3498052 L166.708538,52.1705844 L161.647714,59.8199351 L156.549679,52.1705844 L156.549679,61.3498052 L148.623536,61.3498052 L148.623536,35.8392208 Z M177.239516,35.8392208 L191.863808,35.8392208 L191.863808,42.5324026 L185.165659,42.5324026 L185.165659,45.3626623 L191.752172,45.3626623 L191.752172,51.7116234 L185.165659,51.7116234 L185.165659,54.6566234 L192.124292,54.6566234 L192.124292,61.3498052 L177.239516,61.3498052 L177.239516,35.8392208 Z M194.357008,35.8392208 L202.618058,35.8392208 L202.618058,54.6566234 L209.465055,54.6566234 L209.465055,61.3498052 L194.357008,61.3498052 L194.357008,35.8392208 Z M210.767473,35.8392208 L225.391764,35.8392208 L225.391764,42.5324026 L218.693615,42.5324026 L218.693615,45.3626623 L225.280128,45.3626623 L225.280128,51.7116234 L218.693615,51.7116234 L218.693615,54.6566234 L225.652248,54.6566234 L225.652248,61.3498052 L210.767473,61.3498052 L210.767473,35.8392208 Z M226.768606,48.6136364 C226.768606,46.777783 227.109712,45.0439476 227.791934,43.4120779 C228.474157,41.7802083 229.404446,40.3587182 230.58283,39.1475649 C231.761214,37.9364117 233.144243,36.9802524 234.731961,36.2790584 C236.319678,35.5778645 238.006602,35.2272727 239.792784,35.2272727 C241.578966,35.2272727 243.265891,35.5778645 244.853608,36.2790584 C246.441325,36.9802524 247.824355,37.9364117 249.002739,39.1475649 C250.181123,40.3587182 251.111412,41.7802083 251.793634,43.4120779 C252.475857,45.0439476 252.816963,46.777783 252.816963,48.6136364 C252.816963,50.4494897 252.475857,52.1833252 251.793634,53.8151948 C251.111412,55.4470644 250.181123,56.8685546 249.002739,58.0797078 C247.824355,59.290861 246.441325,60.2470203 244.853608,60.9482143 C243.265891,61.6494083 241.578966,62 239.792784,62 C238.006602,62 236.319678,61.6494083 234.731961,60.9482143 C233.144243,60.2470203 231.761214,59.290861 230.58283,58.0797078 C229.404446,56.8685546 228.474157,55.4470644 227.791934,53.8151948 C227.109712,52.1833252 226.768606,50.4494897 226.768606,48.6136364 Z M234.583113,48.6136364 C234.583113,49.3530773 234.719555,50.0478864 234.992444,50.6980844 C235.265333,51.3482825 235.637449,51.9156036 236.108802,52.4000649 C236.580156,52.8845262 237.132128,53.2669899 237.764734,53.5474675 C238.39734,53.8279451 239.07335,53.9681818 239.792784,53.9681818 C240.512219,53.9681818 241.188229,53.8279451 241.820835,53.5474675 C242.453441,53.2669899 243.005413,52.8845262 243.476766,52.4000649 C243.94812,51.9156036 244.320235,51.3482825 244.593124,50.6980844 C244.866013,50.0478864 245.002456,49.3530773 245.002456,48.6136364 C245.002456,47.8741954 244.866013,47.1793864 244.593124,46.5291883 C244.320235,45.8789903 243.94812,45.3116691 243.476766,44.8272078 C243.005413,44.3427465 242.453441,43.9602828 241.820835,43.6798052 C241.188229,43.3993276 240.512219,43.2590909 239.792784,43.2590909 C239.07335,43.2590909 238.39734,43.3993276 237.764734,43.6798052 C237.132128,43.9602828 236.580156,44.3427465 236.108802,44.8272078 C235.637449,45.3116691 235.265333,45.8789903 234.992444,46.5291883 C234.719555,47.1793864 234.583113,47.8741954 234.583113,48.6136364 Z M254.863619,35.8392208 L261.375708,35.8392208 L268.222705,45.6686364 L268.222705,35.8392208 L276,35.8392208 L276,61.3498052 L269.450699,61.3498052 L262.640914,51.5586364 L262.640914,61.3498052 L254.863619,61.3498052 L254.863619,35.8392208 Z M157.340733,18.1568831 L157.750064,18.1568831 C158.692771,18.1568831 159.49282,17.9401537 160.150234,17.5066883 C160.807648,17.0732229 161.13635,16.3465419 161.13635,15.3266234 C161.13635,14.3067049 160.807648,13.5800238 160.150234,13.1465584 C159.49282,12.7130931 158.692771,12.4963636 157.750064,12.4963636 L157.340733,12.4963636 L157.340733,18.1568831 Z M149.41459,5.61194805 L157.973336,5.61194805 C159.561053,5.61194805 161.03091,5.82867749 162.38295,6.26214286 C163.734991,6.69560823 164.907155,7.33304774 165.899478,8.17448052 C166.891802,9.0159133 167.667043,10.0549397 168.225225,11.2915909 C168.783406,12.5282421 169.062493,13.9497322 169.062493,15.5561039 C169.062493,16.831002 168.888839,17.9146492 168.541526,18.8070779 C168.194213,19.6995066 167.809693,20.4389365 167.387956,21.0253896 C166.891794,21.6883366 166.333621,22.2492834 165.713419,22.7082468 L170.364911,31.1225325 L161.061926,31.1225325 L157.340733,24.6588312 L157.340733,31.1225325 L149.41459,31.1225325 L149.41459,5.61194805 Z M138.139373,23.2054545 L136.464835,18.7305844 L134.790298,23.2054545 L138.139373,23.2054545 Z M133.48788,5.61194805 L139.44179,5.61194805 L148.856411,31.1225325 L141.041904,31.1225325 L140.223241,28.8277273 L132.70643,28.8277273 L131.887767,31.1225325 L124.07326,31.1225325 L133.48788,5.61194805 Z M97.5039363,5.61194805 L104.053237,5.61194805 L110.528115,15.4031169 L116.96578,5.61194805 L123.515081,5.61194805 L123.515081,31.1225325 L115.588938,31.1225325 L115.588938,21.9433117 L110.528115,29.5926623 L105.430079,21.9433117 L105.430079,31.1225325 L97.5039363,31.1225325 L97.5039363,5.61194805 Z M80.0887493,23.2054545 C80.6345271,23.3839403 81.2051044,23.524177 81.8004984,23.6261688 C82.2966601,23.7536586 82.8610355,23.855649 83.4936416,23.9321429 C84.1262477,24.0086367 84.7650463,24.0468831 85.4100564,24.0468831 C86.5512282,24.0468831 87.1218056,23.6134242 87.1218056,22.7464935 C87.1218056,22.41502 86.9481516,22.077177 86.6008384,21.7329545 C86.2535253,21.388732 85.8131884,21.0062683 85.2798146,20.5855519 C84.7464409,20.1648356 84.1758635,19.6995047 83.5680655,19.1895455 C82.9602675,18.6795862 82.3896901,18.0931418 81.8563163,17.4301948 C81.3229426,16.7672478 80.8826057,16.0214435 80.5352925,15.1927597 C80.1879794,14.3640759 80.0143254,13.4142911 80.0143254,12.3433766 C80.0143254,11.1449724 80.2251909,10.0868228 80.6469284,9.1688961 C81.0686658,8.25096944 81.651647,7.48604202 82.3958894,6.87409091 C83.1401319,6.2621398 84.0146037,5.79680895 85.0193311,5.47808442 C86.0240584,5.15935988 87.0969919,5 88.2381637,5 C88.8335577,5 89.4289428,5.03187198 90.0243367,5.09561688 C90.6197307,5.15936179 91.1530965,5.21673135 91.6244501,5.26772727 C92.1702279,5.34422116 92.7035937,5.4207139 93.2245634,5.49720779 L93.2245634,12.6493506 C93.0260988,12.6238527 92.8028294,12.5983551 92.5547485,12.5728571 C92.3562839,12.5473592 92.1330145,12.5218616 91.8849336,12.4963636 C91.6368528,12.4708657 91.3763719,12.4581169 91.1034829,12.4581169 C90.9546344,12.4581169 90.7685766,12.4644913 90.5453039,12.4772403 C90.3220311,12.4899892 90.1111656,12.5218612 89.9127009,12.5728571 C89.7142363,12.6238531 89.5405823,12.7130946 89.3917338,12.8405844 C89.2428853,12.9680742 89.1684622,13.1465573 89.1684622,13.376039 C89.1684622,13.5800227 89.3359142,13.8349985 89.6708233,14.140974 C90.0057324,14.4469496 90.4150597,14.8039157 90.8988173,15.2118831 C91.3825749,15.6198505 91.9159407,16.0915558 92.4989306,16.627013 C93.0819206,17.1624702 93.6152863,17.7744121 94.099044,18.4628571 C94.5828016,19.1513021 94.9921288,19.9289783 95.3270379,20.7959091 C95.661947,21.6628398 95.8293991,22.6317479 95.8293991,23.7026623 C95.8293991,24.8245727 95.6557451,25.8763479 95.3084319,26.8580195 C94.9611188,27.8396911 94.4215511,28.69386 93.6897126,29.4205519 C92.9578742,30.1472439 92.0213831,30.7209395 90.8802113,31.1416558 C89.7390395,31.5623722 88.3870193,31.7727273 86.8241101,31.7727273 C85.8814029,31.7727273 85.0069311,31.7281065 84.2006684,31.6388636 C83.3944057,31.5496208 82.6811841,31.441256 82.060982,31.3137662 C81.3415476,31.1862764 80.6841433,31.0332909 80.0887493,30.8548052 L80.0887493,23.2054545 Z" id="chameleon-copy-5" fill="url(#linearGradient-1)"/>
                    <g id="Oval-8-Copy-3">
                        <use fill="url(#radialGradient-2)" xlink:href="#path-4"/>
                        <use fill="url(#radialGradient-3)" style="mix-blend-mode: overlay;" xlink:href="#path-4"/>
                    </g>
                    <ellipse id="Oval" fill="#FFFFFF" cx="21.6224719" cy="19.8640777" rx="7.63146067" ry="7.68932039"/>
                </g>
            </g>
        </g>
    </g>
</svg>